<?xml version="1.0" encoding="UTF-8" standalone="no"?>
<!DOCTYPE svg PUBLIC "-//W3C//DTD SVG 1.1//EN"
 "http://www.w3.org/Graphics/SVG/1.1/DTD/svg11.dtd">
<!-- Generated by graphviz version 5.0.0 (20220707.1540)
 -->
<!-- Title: dependencies Pages: 1 -->
<svg width="426pt" height="174pt"
 viewBox="0.00 0.00 426.00 173.80" xmlns="http://www.w3.org/2000/svg" xmlns:xlink="http://www.w3.org/1999/xlink">
<g id="graph0" class="graph" transform="scale(1 1) rotate(0) translate(4 169.8)">
<title>dependencies</title>
<polygon fill="white" stroke="transparent" points="-4,4 -4,-169.8 422,-169.8 422,4 -4,4"/>
<text text-anchor="middle" x="209" y="-8.2" font-family="sans-serif" font-size="14.00">dependencies</text>
<g id="clust1" class="cluster">
<title>cluster_AuthModule</title>
<polygon fill="none" stroke="black" stroke-dasharray="1,5" points="8,-32.8 8,-157.8 410,-157.8 410,-32.8 8,-32.8"/>
</g>
<g id="clust3" class="cluster">
<title>cluster_AuthModule_imports</title>
<polygon fill="none" stroke="black" points="288,-40.8 288,-92.8 402,-92.8 402,-40.8 288,-40.8"/>
</g>
<g id="clust6" class="cluster">
<title>cluster_AuthModule_providers</title>
<polygon fill="none" stroke="black" points="16,-40.8 16,-92.8 280,-92.8 280,-40.8 16,-40.8"/>
</g>
<!-- PrismaModule -->
<g id="node1" class="node">
<title>PrismaModule</title>
<polygon fill="#8dd3c7" stroke="black" points="394.44,-84.8 391.44,-88.8 370.44,-88.8 367.44,-84.8 295.56,-84.8 295.56,-48.8 394.44,-48.8 394.44,-84.8"/>
<text text-anchor="middle" x="345" y="-62.6" font-family="Times,serif" font-size="14.00">PrismaModule</text>
</g>
<!-- AuthModule -->
<g id="node2" class="node">
<title>AuthModule</title>
<polygon fill="#8dd3c7" stroke="black" points="256.55,-149.8 253.55,-153.8 232.55,-153.8 229.55,-149.8 169.45,-149.8 169.45,-113.8 256.55,-113.8 256.55,-149.8"/>
<text text-anchor="middle" x="213" y="-127.6" font-family="Times,serif" font-size="14.00">AuthModule</text>
</g>
<!-- PrismaModule&#45;&gt;AuthModule -->
<g id="edge1" class="edge">
<title>PrismaModule&#45;&gt;AuthModule</title>
<path fill="none" stroke="black" d="M345,-84.91C345,-104.14 345,-131.8 345,-131.8 345,-131.8 266.59,-131.8 266.59,-131.8"/>
<polygon fill="black" stroke="black" points="266.59,-128.3 256.59,-131.8 266.59,-135.3 266.59,-128.3"/>
</g>
<!-- AuthService -->
<g id="node3" class="node">
<title>AuthService</title>
<ellipse fill="#fdb462" stroke="black" cx="213" cy="-66.8" rx="59.11" ry="18"/>
<text text-anchor="middle" x="213" y="-62.6" font-family="Times,serif" font-size="14.00">AuthService</text>
</g>
<!-- AuthService&#45;&gt;AuthModule -->
<g id="edge2" class="edge">
<title>AuthService&#45;&gt;AuthModule</title>
<path fill="none" stroke="black" d="M213,-84.91C213,-84.91 213,-103.79 213,-103.79"/>
<polygon fill="black" stroke="black" points="209.5,-103.79 213,-113.79 216.5,-103.79 209.5,-103.79"/>
</g>
<!-- jwtStrategy -->
<g id="node4" class="node">
<title>jwtStrategy</title>
<ellipse fill="#fdb462" stroke="black" cx="80" cy="-66.8" rx="55.62" ry="18"/>
<text text-anchor="middle" x="80" y="-62.6" font-family="Times,serif" font-size="14.00">jwtStrategy</text>
</g>
<!-- jwtStrategy&#45;&gt;AuthModule -->
<g id="edge3" class="edge">
<title>jwtStrategy&#45;&gt;AuthModule</title>
<path fill="none" stroke="black" d="M80,-84.91C80,-104.14 80,-131.8 80,-131.8 80,-131.8 159.08,-131.8 159.08,-131.8"/>
<polygon fill="black" stroke="black" points="159.08,-135.3 169.08,-131.8 159.08,-128.3 159.08,-135.3"/>
</g>
</g>
</svg>
