<?xml version="1.0" encoding="UTF-8" standalone="no"?>
<!DOCTYPE svg PUBLIC "-//W3C//DTD SVG 1.1//EN"
 "http://www.w3.org/Graphics/SVG/1.1/DTD/svg11.dtd">
<!-- Generated by graphviz version 5.0.0 (20220707.1540)
 -->
<!-- Title: dependencies Pages: 1 -->
<svg width="1991pt" height="250pt"
 viewBox="0.00 0.00 1991.00 249.80" xmlns="http://www.w3.org/2000/svg" xmlns:xlink="http://www.w3.org/1999/xlink">
<g id="graph0" class="graph" transform="scale(1 1) rotate(0) translate(4 245.8)">
<title>dependencies</title>
<polygon fill="white" stroke="transparent" points="-4,4 -4,-245.8 1987,-245.8 1987,4 -4,4"/>
<text text-anchor="middle" x="991.5" y="-8.2" font-family="sans-serif" font-size="14.00">dependencies</text>
<g id="clust1" class="cluster">
<title>cluster_AppModule</title>
<polygon fill="none" stroke="black" stroke-dasharray="1,5" points="962,-32.8 962,-233.8 1677,-233.8 1677,-32.8 962,-32.8"/>
</g>
<g id="clust3" class="cluster">
<title>cluster_AppModule_imports</title>
<polygon fill="none" stroke="black" points="1108,-40.8 1108,-168.8 1657,-168.8 1657,-40.8 1108,-40.8"/>
</g>
<g id="clust6" class="cluster">
<title>cluster_AppModule_providers</title>
<polygon fill="none" stroke="black" points="970,-116.8 970,-168.8 1100,-168.8 1100,-116.8 970,-116.8"/>
</g>
<g id="clust7" class="cluster">
<title>cluster_AuthModule</title>
<polygon fill="none" stroke="black" stroke-dasharray="1,5" points="8,-32.8 8,-100.8 288,-100.8 288,-32.8 8,-32.8"/>
</g>
<g id="clust12" class="cluster">
<title>cluster_AuthModule_providers</title>
<polygon fill="none" stroke="black" points="16,-40.8 16,-92.8 280,-92.8 280,-40.8 16,-40.8"/>
</g>
<g id="clust13" class="cluster">
<title>cluster_OrderModule</title>
<polygon fill="none" stroke="black" stroke-dasharray="1,5" points="296,-32.8 296,-100.8 454,-100.8 454,-32.8 296,-32.8"/>
</g>
<g id="clust18" class="cluster">
<title>cluster_OrderModule_providers</title>
<polygon fill="none" stroke="black" points="304,-40.8 304,-92.8 446,-92.8 446,-40.8 304,-40.8"/>
</g>
<g id="clust19" class="cluster">
<title>cluster_PrismaModule</title>
<polygon fill="none" stroke="black" stroke-dasharray="1,5" points="1685,-108.8 1685,-176.8 1975,-176.8 1975,-108.8 1685,-108.8"/>
</g>
<g id="clust22" class="cluster">
<title>cluster_PrismaModule_exports</title>
<polygon fill="none" stroke="black" points="1851,-116.8 1851,-168.8 1967,-168.8 1967,-116.8 1851,-116.8"/>
</g>
<g id="clust24" class="cluster">
<title>cluster_PrismaModule_providers</title>
<polygon fill="none" stroke="black" points="1693,-116.8 1693,-168.8 1843,-168.8 1843,-116.8 1693,-116.8"/>
</g>
<g id="clust25" class="cluster">
<title>cluster_ProductModule</title>
<polygon fill="none" stroke="black" stroke-dasharray="1,5" points="462,-32.8 462,-100.8 634,-100.8 634,-32.8 462,-32.8"/>
</g>
<g id="clust30" class="cluster">
<title>cluster_ProductModule_providers</title>
<polygon fill="none" stroke="black" points="470,-40.8 470,-92.8 626,-92.8 626,-40.8 470,-40.8"/>
</g>
<g id="clust31" class="cluster">
<title>cluster_TableModule</title>
<polygon fill="none" stroke="black" stroke-dasharray="1,5" points="642,-32.8 642,-100.8 798,-100.8 798,-32.8 642,-32.8"/>
</g>
<g id="clust36" class="cluster">
<title>cluster_TableModule_providers</title>
<polygon fill="none" stroke="black" points="650,-40.8 650,-92.8 790,-92.8 790,-40.8 650,-40.8"/>
</g>
<g id="clust37" class="cluster">
<title>cluster_UserModule</title>
<polygon fill="none" stroke="black" stroke-dasharray="1,5" points="806,-32.8 806,-100.8 954,-100.8 954,-32.8 806,-32.8"/>
</g>
<g id="clust42" class="cluster">
<title>cluster_UserModule_providers</title>
<polygon fill="none" stroke="black" points="814,-40.8 814,-92.8 946,-92.8 946,-40.8 814,-40.8"/>
</g>
<!-- AuthModule -->
<g id="node1" class="node">
<title>AuthModule</title>
<polygon fill="#8dd3c7" stroke="black" points="1203.55,-160.8 1200.55,-164.8 1179.55,-164.8 1176.55,-160.8 1116.45,-160.8 1116.45,-124.8 1203.55,-124.8 1203.55,-160.8"/>
<text text-anchor="middle" x="1160" y="-138.6" font-family="Times,serif" font-size="14.00">AuthModule</text>
</g>
<!-- AppModule -->
<g id="node7" class="node">
<title>AppModule</title>
<polygon fill="#8dd3c7" stroke="black" points="1425.66,-225.8 1422.66,-229.8 1401.66,-229.8 1398.66,-225.8 1342.34,-225.8 1342.34,-189.8 1425.66,-189.8 1425.66,-225.8"/>
<text text-anchor="middle" x="1384" y="-203.6" font-family="Times,serif" font-size="14.00">AppModule</text>
</g>
<!-- AuthModule&#45;&gt;AppModule -->
<g id="edge1" class="edge">
<title>AuthModule&#45;&gt;AppModule</title>
<path fill="none" stroke="black" d="M1160,-160.91C1160,-180.14 1160,-207.8 1160,-207.8 1160,-207.8 1332.13,-207.8 1332.13,-207.8"/>
<polygon fill="black" stroke="black" points="1332.13,-211.3 1342.13,-207.8 1332.13,-204.3 1332.13,-211.3"/>
</g>
<!-- OrderModule -->
<g id="node2" class="node">
<title>OrderModule</title>
<polygon fill="#8dd3c7" stroke="black" points="1314.2,-160.8 1311.2,-164.8 1290.2,-164.8 1287.2,-160.8 1221.8,-160.8 1221.8,-124.8 1314.2,-124.8 1314.2,-160.8"/>
<text text-anchor="middle" x="1268" y="-138.6" font-family="Times,serif" font-size="14.00">OrderModule</text>
</g>
<!-- OrderModule&#45;&gt;AppModule -->
<g id="edge2" class="edge">
<title>OrderModule&#45;&gt;AppModule</title>
<path fill="none" stroke="black" d="M1268,-160.83C1268,-177.2 1268,-198.8 1268,-198.8 1268,-198.8 1332.12,-198.8 1332.12,-198.8"/>
<polygon fill="black" stroke="black" points="1332.12,-202.3 1342.12,-198.8 1332.12,-195.3 1332.12,-202.3"/>
</g>
<!-- PrismaModule -->
<g id="node3" class="node">
<title>PrismaModule</title>
<polygon fill="#8dd3c7" stroke="black" points="1598.44,-84.8 1595.44,-88.8 1574.44,-88.8 1571.44,-84.8 1499.56,-84.8 1499.56,-48.8 1598.44,-48.8 1598.44,-84.8"/>
<text text-anchor="middle" x="1549" y="-62.6" font-family="Times,serif" font-size="14.00">PrismaModule</text>
</g>
<!-- PrismaModule&#45;&gt;AuthModule -->
<g id="edge8" class="edge">
<title>PrismaModule&#45;&gt;AuthModule</title>
<path fill="none" stroke="black" d="M1499.49,-57.8C1399.28,-57.8 1181.89,-57.8 1181.89,-57.8 1181.89,-57.8 1181.89,-114.77 1181.89,-114.77"/>
<polygon fill="black" stroke="black" points="1178.39,-114.77 1181.89,-124.77 1185.39,-114.77 1178.39,-114.77"/>
</g>
<!-- PrismaModule&#45;&gt;OrderModule -->
<g id="edge11" class="edge">
<title>PrismaModule&#45;&gt;OrderModule</title>
<path fill="none" stroke="black" d="M1499.66,-66.8C1422.84,-66.8 1283.37,-66.8 1283.37,-66.8 1283.37,-66.8 1283.37,-114.79 1283.37,-114.79"/>
<polygon fill="black" stroke="black" points="1279.87,-114.79 1283.37,-124.79 1286.87,-114.79 1279.87,-114.79"/>
</g>
<!-- ProductModule -->
<g id="node4" class="node">
<title>ProductModule</title>
<polygon fill="#8dd3c7" stroke="black" points="1435.6,-160.8 1432.6,-164.8 1411.6,-164.8 1408.6,-160.8 1332.4,-160.8 1332.4,-124.8 1435.6,-124.8 1435.6,-160.8"/>
<text text-anchor="middle" x="1384" y="-138.6" font-family="Times,serif" font-size="14.00">ProductModule</text>
</g>
<!-- PrismaModule&#45;&gt;ProductModule -->
<g id="edge15" class="edge">
<title>PrismaModule&#45;&gt;ProductModule</title>
<path fill="none" stroke="black" d="M1499.37,-75.8C1456.43,-75.8 1401.18,-75.8 1401.18,-75.8 1401.18,-75.8 1401.18,-114.49 1401.18,-114.49"/>
<polygon fill="black" stroke="black" points="1397.68,-114.49 1401.18,-124.49 1404.68,-114.49 1397.68,-114.49"/>
</g>
<!-- TableModule -->
<g id="node5" class="node">
<title>TableModule</title>
<polygon fill="#8dd3c7" stroke="black" points="1544.92,-160.8 1541.92,-164.8 1520.92,-164.8 1517.92,-160.8 1453.08,-160.8 1453.08,-124.8 1544.92,-124.8 1544.92,-160.8"/>
<text text-anchor="middle" x="1499" y="-138.6" font-family="Times,serif" font-size="14.00">TableModule</text>
</g>
<!-- PrismaModule&#45;&gt;TableModule -->
<g id="edge17" class="edge">
<title>PrismaModule&#45;&gt;TableModule</title>
<path fill="none" stroke="black" d="M1522.24,-84.81C1522.24,-84.81 1522.24,-114.65 1522.24,-114.65"/>
<polygon fill="black" stroke="black" points="1518.74,-114.65 1522.24,-124.65 1525.74,-114.65 1518.74,-114.65"/>
</g>
<!-- UserModule -->
<g id="node6" class="node">
<title>UserModule</title>
<polygon fill="#8dd3c7" stroke="black" points="1648.99,-160.8 1645.99,-164.8 1624.99,-164.8 1621.99,-160.8 1563.01,-160.8 1563.01,-124.8 1648.99,-124.8 1648.99,-160.8"/>
<text text-anchor="middle" x="1606" y="-138.6" font-family="Times,serif" font-size="14.00">UserModule</text>
</g>
<!-- PrismaModule&#45;&gt;UserModule -->
<g id="edge19" class="edge">
<title>PrismaModule&#45;&gt;UserModule</title>
<path fill="none" stroke="black" d="M1586.48,-84.81C1586.48,-84.81 1586.48,-114.65 1586.48,-114.65"/>
<polygon fill="black" stroke="black" points="1582.98,-114.65 1586.48,-124.65 1589.98,-114.65 1582.98,-114.65"/>
</g>
<!-- PrismaModule&#45;&gt;AppModule -->
<g id="edge3" class="edge">
<title>PrismaModule&#45;&gt;AppModule</title>
<path fill="none" stroke="black" d="M1553.86,-84.94C1553.86,-123.03 1553.86,-207.8 1553.86,-207.8 1553.86,-207.8 1435.99,-207.8 1435.99,-207.8"/>
<polygon fill="black" stroke="black" points="1435.99,-204.3 1425.99,-207.8 1435.99,-211.3 1435.99,-204.3"/>
</g>
<!-- PrismaService  -->
<g id="node12" class="node">
<title>PrismaService </title>
<polygon fill="#fb8072" stroke="black" points="1959.37,-160.8 1858.63,-160.8 1858.63,-124.8 1959.37,-124.8 1959.37,-160.8"/>
<text text-anchor="middle" x="1909" y="-138.6" font-family="Times,serif" font-size="14.00">PrismaService </text>
</g>
<!-- PrismaModule&#45;&gt;PrismaService  -->
<g id="edge13" class="edge">
<title>PrismaModule&#45;&gt;PrismaService </title>
<path fill="none" stroke="black" stroke-dasharray="5,2" d="M1598.3,-60.8C1696.9,-60.8 1909,-60.8 1909,-60.8 1909,-60.8 1909,-114.6 1909,-114.6"/>
<polygon fill="black" stroke="black" points="1905.5,-114.6 1909,-124.6 1912.5,-114.6 1905.5,-114.6"/>
</g>
<!-- ProductModule&#45;&gt;AppModule -->
<g id="edge4" class="edge">
<title>ProductModule&#45;&gt;AppModule</title>
<path fill="none" stroke="black" d="M1384,-160.91C1384,-160.91 1384,-179.79 1384,-179.79"/>
<polygon fill="black" stroke="black" points="1380.5,-179.79 1384,-189.79 1387.5,-179.79 1380.5,-179.79"/>
</g>
<!-- TableModule&#45;&gt;AppModule -->
<g id="edge5" class="edge">
<title>TableModule&#45;&gt;AppModule</title>
<path fill="none" stroke="black" d="M1499,-160.83C1499,-177.2 1499,-198.8 1499,-198.8 1499,-198.8 1435.84,-198.8 1435.84,-198.8"/>
<polygon fill="black" stroke="black" points="1435.84,-195.3 1425.84,-198.8 1435.84,-202.3 1435.84,-195.3"/>
</g>
<!-- UserModule&#45;&gt;AppModule -->
<g id="edge6" class="edge">
<title>UserModule&#45;&gt;AppModule</title>
<path fill="none" stroke="black" d="M1606,-161.09C1606,-183.01 1606,-216.8 1606,-216.8 1606,-216.8 1435.76,-216.8 1435.76,-216.8"/>
<polygon fill="black" stroke="black" points="1435.76,-213.3 1425.76,-216.8 1435.76,-220.3 1435.76,-213.3"/>
</g>
<!-- AppService -->
<g id="node8" class="node">
<title>AppService</title>
<ellipse fill="#fdb462" stroke="black" cx="1035" cy="-142.8" rx="56.75" ry="18"/>
<text text-anchor="middle" x="1035" y="-138.6" font-family="Times,serif" font-size="14.00">AppService</text>
</g>
<!-- AppService&#45;&gt;AppModule -->
<g id="edge7" class="edge">
<title>AppService&#45;&gt;AppModule</title>
<path fill="none" stroke="black" d="M1035,-161.09C1035,-183.01 1035,-216.8 1035,-216.8 1035,-216.8 1332.25,-216.8 1332.25,-216.8"/>
<polygon fill="black" stroke="black" points="1332.25,-220.3 1342.25,-216.8 1332.25,-213.3 1332.25,-220.3"/>
</g>
<!-- AuthService -->
<g id="node9" class="node">
<title>AuthService</title>
<ellipse fill="#fdb462" stroke="black" cx="213" cy="-66.8" rx="59.11" ry="18"/>
<text text-anchor="middle" x="213" y="-62.6" font-family="Times,serif" font-size="14.00">AuthService</text>
</g>
<!-- AuthService&#45;&gt;AuthModule -->
<g id="edge9" class="edge">
<title>AuthService&#45;&gt;AuthModule</title>
<path fill="none" stroke="black" d="M213,-84.84C213,-98.09 213,-113.8 213,-113.8 213,-113.8 1160,-113.8 1160,-113.8 1160,-113.8 1160,-114.88 1160,-114.88"/>
<polygon fill="black" stroke="black" points="1156.5,-114.6 1160,-124.6 1163.5,-114.6 1156.5,-114.6"/>
</g>
<!-- jwtStrategy -->
<g id="node10" class="node">
<title>jwtStrategy</title>
<ellipse fill="#fdb462" stroke="black" cx="80" cy="-66.8" rx="55.62" ry="18"/>
<text text-anchor="middle" x="80" y="-62.6" font-family="Times,serif" font-size="14.00">jwtStrategy</text>
</g>
<!-- jwtStrategy&#45;&gt;AuthModule -->
<g id="edge10" class="edge">
<title>jwtStrategy&#45;&gt;AuthModule</title>
<path fill="none" stroke="black" d="M80,-85.04C80,-100.37 80,-119.8 80,-119.8 80,-119.8 1138.11,-119.8 1138.11,-119.8 1138.11,-119.8 1138.11,-120.29 1138.11,-120.29"/>
<polygon fill="black" stroke="black" points="1134.61,-114.68 1138.11,-124.68 1141.61,-114.68 1134.61,-114.68"/>
</g>
<!-- OrderService -->
<g id="node11" class="node">
<title>OrderService</title>
<ellipse fill="#fdb462" stroke="black" cx="375" cy="-66.8" rx="62.53" ry="18"/>
<text text-anchor="middle" x="375" y="-62.6" font-family="Times,serif" font-size="14.00">OrderService</text>
</g>
<!-- OrderService&#45;&gt;OrderModule -->
<g id="edge12" class="edge">
<title>OrderService&#45;&gt;OrderModule</title>
<path fill="none" stroke="black" d="M375,-84.9C375,-95.89 375,-107.8 375,-107.8 375,-107.8 1252.63,-107.8 1252.63,-107.8 1252.63,-107.8 1252.63,-114.48 1252.63,-114.48"/>
<polygon fill="black" stroke="black" points="1249.13,-114.48 1252.63,-124.48 1256.13,-114.48 1249.13,-114.48"/>
</g>
<!-- PrismaService -->
<g id="node13" class="node">
<title>PrismaService</title>
<ellipse fill="#fdb462" stroke="black" cx="1768" cy="-142.8" rx="66.64" ry="18"/>
<text text-anchor="middle" x="1768" y="-138.6" font-family="Times,serif" font-size="14.00">PrismaService</text>
</g>
<!-- PrismaService&#45;&gt;PrismaModule -->
<g id="edge14" class="edge">
<title>PrismaService&#45;&gt;PrismaModule</title>
<path fill="none" stroke="black" d="M1768,-124.77C1768,-104.03 1768,-72.8 1768,-72.8 1768,-72.8 1608.42,-72.8 1608.42,-72.8"/>
<polygon fill="black" stroke="black" points="1608.42,-69.3 1598.42,-72.8 1608.42,-76.3 1608.42,-69.3"/>
</g>
<!-- ProductService -->
<g id="node14" class="node">
<title>ProductService</title>
<ellipse fill="#fdb462" stroke="black" cx="548" cy="-66.8" rx="70.07" ry="18"/>
<text text-anchor="middle" x="548" y="-62.6" font-family="Times,serif" font-size="14.00">ProductService</text>
</g>
<!-- ProductService&#45;&gt;ProductModule -->
<g id="edge16" class="edge">
<title>ProductService&#45;&gt;ProductModule</title>
<path fill="none" stroke="black" d="M548,-84.8C548,-93.8 548,-102.8 548,-102.8 548,-102.8 1366.82,-102.8 1366.82,-102.8 1366.82,-102.8 1366.82,-114.67 1366.82,-114.67"/>
<polygon fill="black" stroke="black" points="1363.32,-114.67 1366.82,-124.67 1370.32,-114.67 1363.32,-114.67"/>
</g>
<!-- TableService -->
<g id="node15" class="node">
<title>TableService</title>
<ellipse fill="#fdb462" stroke="black" cx="720" cy="-66.8" rx="61.95" ry="18"/>
<text text-anchor="middle" x="720" y="-62.6" font-family="Times,serif" font-size="14.00">TableService</text>
</g>
<!-- TableService&#45;&gt;TableModule -->
<g id="edge18" class="edge">
<title>TableService&#45;&gt;TableModule</title>
<path fill="none" stroke="black" d="M720,-84.94C720,-91.26 720,-96.8 720,-96.8 720,-96.8 1476.53,-96.8 1476.53,-96.8 1476.53,-96.8 1476.53,-114.62 1476.53,-114.62"/>
<polygon fill="black" stroke="black" points="1473.03,-114.62 1476.53,-124.62 1480.03,-114.62 1473.03,-114.62"/>
</g>
<!-- UserService -->
<g id="node16" class="node">
<title>UserService</title>
<ellipse fill="#fdb462" stroke="black" cx="880" cy="-66.8" rx="58.46" ry="18"/>
<text text-anchor="middle" x="880" y="-62.6" font-family="Times,serif" font-size="14.00">UserService</text>
</g>
<!-- UserService&#45;&gt;UserModule -->
<g id="edge20" class="edge">
<title>UserService&#45;&gt;UserModule</title>
<path fill="none" stroke="black" d="M880,-84.99C880,-88.34 880,-90.8 880,-90.8 880,-90.8 1574.74,-90.8 1574.74,-90.8 1574.74,-90.8 1574.74,-114.61 1574.74,-114.61"/>
<polygon fill="black" stroke="black" points="1571.24,-114.61 1574.74,-124.61 1578.24,-114.61 1571.24,-114.61"/>
</g>
</g>
</svg>
